PathFileType	4	(X/Y/Z)	 s08c0402.trc
DataRate	CameraRate	NumFrames	NumMarkers	Units	OrigDataRate	OrigDataStartFrame	OrigNumFrames
200	200	6	50	mm	200	1501	2000
Frame#	Time	racr			lacr			c7			jug			rlel			rdr			llel			ldr			s2			lic			ric			lasi			rasi			rpsi			lpsi			rgt			lgt			rth1			rth2			rth3			rth4			rlfc			rmfc			rsh1			rsh2			rsh3			rsh4			rlmal			rmmal			rcal			rtoe			rmt5			lth1			lth2			lth4			lth3			llfc			lmfc			llmal			lmmal			lcal			lmt5			lsh1			lsh2			lsh3			lsh4			ltoe			SBIKE			LBIKE			RBIKE			
		X1	Y1	Z1	X2	Y2	Z2	X3	Y3	Z3	X4	Y4	Z4	X5	Y5	Z5	X6	Y6	Z6	X7	Y7	Z7	X8	Y8	Z8	X9	Y9	Z9	X10	Y10	Z10	X11	Y11	Z11	X12	Y12	Z12	X13	Y13	Z13	X14	Y14	Z14	X15	Y15	Z15	X16	Y16	Z16	X17	Y17	Z17	X18	Y18	Z18	X19	Y19	Z19	X20	Y20	Z20	X21	Y21	Z21	X22	Y22	Z22	X23	Y23	Z23	X24	Y24	Z24	X25	Y25	Z25	X26	Y26	Z26	X27	Y27	Z27	X28	Y28	Z28	X29	Y29	Z29	X30	Y30	Z30	X31	Y31	Z31	X32	Y32	Z32	X33	Y33	Z33	X34	Y34	Z34	X35	Y35	Z35	X36	Y36	Z36	X37	Y37	Z37	X38	Y38	Z38	X39	Y39	Z39	X40	Y40	Z40	X41	Y41	Z41	X42	Y42	Z42	X43	Y43	Z43	X44	Y44	Z44	X45	Y45	Z45	X46	Y46	Z46	X47	Y47	Z47	X48	Y48	Z48	X49	Y49	Z49	X50	Y50	Z50	
1501	7.5050	893.605363	1330.172570	-3.005956	865.776620	1366.132477	-337.439802	885.305020	1390.737242	-153.440001	793.306032	1259.604384	-166.033850	718.041087	1155.952113	158.204153	775.276943	938.709879	-17.234546	720.364637	1182.070876	-502.962009	792.390056	932.512369	-439.190243	306.392879	1265.269827	-246.313392	486.591000	1217.426482	-363.795343	423.477289	1260.235787	-60.416963	480.952645	1156.602540	-332.229300	461.206036	1208.093767	-74.292668	336.701874	1302.778768	-197.157569	354.147943	1297.701840	-290.850074	360.390064	1166.240021	-33.814697	372.849204	1111.545023	-404.839624	475.608177	1037.187429	-21.005312	551.757216	989.971490	-20.326770	593.105826	913.803416	-23.027465	577.779568	1015.879044	-25.515737	661.462677	819.727046	-40.510502	651.911244	817.825942	-156.084163	556.399491	753.436795	-16.232997	504.270497	681.762652	-35.669352	425.540001	647.834237	-42.883764	526.127589	663.736134	-66.299398	325.706527	575.848727	-57.180615	351.750243	587.747501	-143.810633	238.156199	586.887737	-102.339264	497.525646	442.384974	-95.809673	404.464138	454.945838	-30.418497	373.055302	980.842769	-419.839306	391.756305	895.738854	-420.028257	427.407784	893.738655	-412.184577	364.467554	810.720595	-419.106208	342.076209	681.767102	-399.020441	337.295419	654.960383	-296.513127	141.882634	313.309550	-401.511698	179.465265	315.556169	-319.507336	84.580678	329.968983	-360.942253	214.863337	157.262187	-414.781408	272.133762	571.233768	-425.843564	254.889927	487.797324	-410.958794	198.262053	420.361200	-410.031813	279.274696	479.519230	-380.543485	297.959402	134.100840	-345.988230	-141.624052	941.305650	-220.920659	18.332663	84.353313	-425.895368	11.322387	80.606486	-27.316833	
1502	7.5100	894.323027	1326.678856	-1.216051	865.378412	1365.301047	-335.623905	885.553222	1389.120096	-151.424460	793.520520	1258.133006	-165.222789	717.670896	1154.460310	160.631330	775.234121	938.715088	-17.002907	719.294246	1182.252771	-501.777232	792.373882	932.728687	-438.570287	306.741272	1268.251179	-246.477037	486.915017	1220.834792	-364.148251	423.504180	1260.469465	-60.171736	480.843832	1160.056053	-332.826912	459.126845	1209.044174	-74.398023	336.999757	1305.164775	-196.808282	354.643184	1301.114835	-290.292034	358.748565	1166.544865	-35.012406	373.107961	1115.448990	-406.176197	472.494844	1036.706003	-21.380604	548.819863	989.069033	-20.526297	588.690180	912.385198	-22.426613	574.592584	1014.820285	-24.728269	657.750392	818.051732	-39.626498	648.334333	816.228254	-154.665353	553.576746	748.536479	-15.844631	504.103102	675.482481	-35.780999	425.684675	639.737681	-43.815751	526.320343	658.353675	-66.587798	328.073069	566.410652	-58.646156	353.675620	578.786774	-145.609780	240.329263	573.718703	-104.309675	505.786965	440.848714	-95.142906	411.657597	449.567345	-30.068657	375.898180	982.884906	-420.953406	396.046303	898.185388	-420.532247	431.798271	896.958134	-413.133875	370.287111	812.677489	-418.586590	348.533706	683.446948	-399.446410	342.950341	656.570497	-296.824662	136.490382	320.968320	-402.054019	174.227836	322.335776	-319.739951	79.089823	338.480777	-361.034903	206.301114	163.506846	-414.839011	275.280299	574.471601	-426.070812	255.114213	491.954461	-411.162308	196.254015	426.482870	-410.315232	279.136174	482.637377	-380.585956	288.871455	138.668343	-345.879279	-141.611542	941.316058	-220.793638	18.315326	84.376856	-425.908209	11.286178	80.558600	-27.318114	
1503	7.5150	894.870629	1323.453937	-0.569148	864.967813	1364.465158	-334.291099	885.784809	1387.659743	-149.768597	793.607664	1256.928935	-164.955608	717.323451	1152.963579	162.733416	775.206710	938.687076	-16.841832	717.825575	1182.448704	-500.825450	792.199563	932.904966	-437.898097	306.707447	1271.064156	-246.183793	487.117480	1224.247258	-364.468750	423.489853	1260.605699	-59.811259	480.682902	1163.477361	-333.226847	457.129619	1209.890354	-74.463284	337.359510	1307.608791	-195.730259	355.076758	1304.261417	-289.648710	357.170634	1166.743877	-36.074744	373.524673	1119.157367	-407.282911	469.394307	1036.244954	-21.730282	544.579048	988.224268	-19.382149	584.917976	910.960326	-22.917505	571.447842	1013.443812	-24.071774	653.556004	815.844900	-38.955144	644.083358	814.213988	-153.423866	550.296171	743.024861	-15.791611	502.331865	669.185700	-36.969011	425.789216	630.859555	-45.215875	525.292328	652.754852	-67.994183	330.728748	556.317447	-60.143340	355.991626	568.909145	-147.253361	243.078522	560.166972	-106.276666	513.392164	438.465996	-94.282787	418.496355	443.501426	-29.858663	379.448306	984.853890	-421.602178	401.276614	900.482276	-420.711538	436.985005	900.043690	-413.601206	377.130972	814.521748	-418.246492	356.137006	685.115774	-399.804625	349.490579	658.305782	-296.896932	131.995193	329.137638	-402.786510	169.626273	329.896043	-319.944057	74.508314	347.679155	-361.340082	198.151977	170.218338	-414.955422	279.658727	578.119577	-426.571522	256.431507	496.428388	-411.391816	195.350035	433.121069	-410.800445	279.998780	486.415044	-380.764057	280.134082	143.724440	-345.992473	-141.542349	941.343295	-220.665269	18.302550	84.396410	-425.898507	11.235399	80.361112	-27.484493	
1504	7.5200	895.352197	1320.539919	-0.201405	864.477232	1363.382991	-333.169501	886.372289	1386.664112	-148.439335	792.943857	1256.989948	-164.972365	717.407461	1151.331214	164.278633	775.193842	938.650131	-16.671990	723.202122	1186.406276	-509.211741	792.008506	933.028163	-437.397930	306.713153	1273.819756	-245.606040	487.166908	1227.625756	-364.777177	423.570202	1260.553557	-59.319009	480.499147	1166.877740	-333.566873	455.222246	1210.622259	-74.491542	337.650568	1310.194901	-196.338891	355.199768	1307.414646	-288.240725	355.610659	1166.980361	-36.920146	374.188685	1122.569788	-408.250082	467.004126	1035.055519	-23.141984	540.933218	986.129944	-19.359350	580.623185	909.320877	-23.136876	567.954411	1012.035374	-23.135562	648.894178	813.456119	-38.337452	639.222205	811.859271	-152.393688	546.642237	737.184038	-15.909879	501.028066	662.182655	-38.106596	425.892192	621.466098	-46.920977	524.562731	646.870168	-69.205441	333.302264	545.877297	-61.907089	358.689036	558.844032	-148.905547	246.080871	546.698394	-108.831277	520.373114	435.022242	-92.765462	424.550839	436.782258	-29.625368	383.632407	986.775226	-421.792087	407.115006	902.897071	-420.567303	442.845763	903.139319	-413.472358	384.730133	816.489653	-418.110030	364.696142	686.781443	-399.883986	356.713977	660.397574	-296.589783	128.443351	337.840372	-403.677158	166.092472	337.773904	-320.428972	70.659963	357.610595	-361.943281	190.567113	177.397044	-415.025734	285.198241	581.795924	-426.936480	258.848238	501.200860	-411.546398	195.486314	440.127649	-411.322014	281.800905	490.273763	-380.681495	271.767889	148.971950	-346.024516	-141.443470	941.396227	-220.600327	18.315502	84.407601	-425.914965	11.294892	80.578711	-27.309170	
1505	7.5250	895.548727	1317.946631	-0.875216	864.009015	1362.360593	-332.429974	886.571904	1385.352650	-147.417687	792.609935	1256.234879	-165.226071	717.242333	1149.872023	165.557961	775.136459	938.590237	-16.514621	721.523299	1186.742594	-508.591268	791.609787	933.069786	-436.760607	307.071646	1276.636586	-245.038806	487.050352	1230.903048	-365.017547	423.752572	1260.433830	-58.716037	480.308664	1170.188870	-333.773625	453.412613	1211.229842	-74.485891	337.718291	1312.326861	-195.041929	355.329750	1310.135673	-286.700690	354.149667	1167.259721	-37.546078	375.142092	1125.619120	-409.061410	463.799852	1034.344311	-23.362314	537.618666	984.825778	-19.084890	576.121659	907.438199	-23.377469	564.448289	1010.291724	-22.386308	643.779150	810.743335	-37.746894	634.111485	809.352741	-151.586706	542.774765	731.158241	-16.132046	499.639940	655.006598	-39.238737	425.930491	611.936222	-48.611372	523.629444	640.660069	-70.519604	336.033902	535.257702	-63.612334	361.624911	548.397688	-150.294700	249.009331	532.576865	-111.091669	526.673074	430.668760	-92.092542	430.415939	428.867836	-30.001547	388.192754	988.676507	-421.633809	413.531398	905.223244	-419.962585	449.140270	906.330482	-412.529097	392.932550	818.416340	-417.941044	373.895400	688.524153	-399.957617	364.639027	662.455451	-296.171227	126.059658	346.960143	-404.563337	157.672582	348.981608	-321.348424	68.231508	368.074177	-362.443667	183.610566	184.843276	-415.160108	291.671732	585.573238	-427.317605	262.261904	506.105261	-411.647389	196.720653	447.360296	-411.857000	284.529214	494.639619	-380.555787	263.897869	154.586580	-345.997662	-141.319328	941.467392	-220.565874	18.326438	84.439198	-425.931872	11.249732	80.405534	-27.510561	
1506	7.5300	896.115167	1315.575278	0.017185	863.380204	1361.280803	-332.058109	886.664121	1384.266250	-146.896277	792.561351	1255.322252	-165.207211	717.267398	1148.484344	166.592991	774.967766	938.512977	-16.359154	719.563600	1187.157138	-507.957623	791.080646	932.967642	-436.186034	306.949556	1278.890815	-244.158343	486.790476	1234.090996	-365.238182	423.845679	1260.252172	-58.058300	480.168400	1173.462371	-333.876628	451.708606	1211.703056	-74.449423	337.312335	1314.573189	-193.726641	355.443930	1312.402196	-285.381765	352.704418	1167.604418	-37.998569	376.443561	1128.277446	-409.761692	460.717960	1033.558950	-23.716949	533.699636	983.364001	-18.974613	571.409535	905.485266	-23.479218	561.553226	1007.350651	-23.682273	638.458640	807.888434	-37.192723	628.966999	806.749717	-150.802519	538.845439	724.954761	-16.396407	498.197449	647.867088	-40.142210	425.909172	602.438198	-49.958612	522.700958	634.366561	-71.414462	339.029594	524.469515	-64.429201	365.564392	536.797330	-151.415944	253.034887	519.460016	-112.946037	532.679939	425.265445	-91.925669	436.302066	420.770463	-30.080382	393.033129	990.552685	-421.127912	420.245805	907.667826	-418.980784	455.715250	909.565866	-410.919039	401.714473	820.444674	-417.552161	383.544569	690.261303	-399.754955	373.061713	664.478800	-295.712921	124.832011	356.258226	-405.312745	156.167692	357.565044	-321.838386	67.166899	379.157981	-362.927317	177.193775	192.639853	-415.611934	298.902260	589.231579	-427.021030	266.499556	511.077662	-411.505530	199.011466	454.676254	-412.237039	288.045597	498.944578	-380.125318	256.454681	160.128267	-345.984760	-141.200644	941.522813	-220.650530	18.340822	84.559435	-425.943428	11.252792	80.404681	-27.523731	
